<svg id="visual" viewBox="0 0 900 600" width="900" height="600" xmlns="http://www.w3.org/2000/svg" xmlns:xlink="http://www.w3.org/1999/xlink" version="1.1"><path d="M0 79L13.7 74C27.3 69 54.7 59 82 57C109.3 55 136.7 61 163.8 66C191 71 218 75 245.2 81C272.3 87 299.7 95 327 92C354.3 89 381.7 75 409 65C436.3 55 463.7 49 491 60C518.3 71 545.7 99 573 108C600.3 117 627.7 107 654.8 97C682 87 709 77 736.2 76C763.3 75 790.7 83 818 82C845.3 81 872.7 71 886.3 66L900 61L900 0L886.3 0C872.7 0 845.3 0 818 0C790.7 0 763.3 0 736.2 0C709 0 682 0 654.8 0C627.7 0 600.3 0 573 0C545.7 0 518.3 0 491 0C463.7 0 436.3 0 409 0C381.7 0 354.3 0 327 0C299.7 0 272.3 0 245.2 0C218 0 191 0 163.8 0C136.7 0 109.3 0 82 0C54.7 0 27.3 0 13.7 0L0 0Z" fill="#d6d6d6"></path><path d="M0 199L13.7 186C27.3 173 54.7 147 82 143C109.3 139 136.7 157 163.8 176C191 195 218 215 245.2 221C272.3 227 299.7 219 327 219C354.3 219 381.7 227 409 217C436.3 207 463.7 179 491 184C518.3 189 545.7 227 573 241C600.3 255 627.7 245 654.8 237C682 229 709 223 736.2 218C763.3 213 790.7 209 818 203C845.3 197 872.7 189 886.3 185L900 181L900 59L886.3 64C872.7 69 845.3 79 818 80C790.7 81 763.3 73 736.2 74C709 75 682 85 654.8 95C627.7 105 600.3 115 573 106C545.7 97 518.3 69 491 58C463.7 47 436.3 53 409 63C381.7 73 354.3 87 327 90C299.7 93 272.3 85 245.2 79C218 73 191 69 163.8 64C136.7 59 109.3 53 82 55C54.7 57 27.3 67 13.7 72L0 77Z" fill="#bbbbbb"></path><path d="M0 241L13.7 233C27.3 225 54.7 209 82 212C109.3 215 136.7 237 163.8 250C191 263 218 267 245.2 268C272.3 269 299.7 267 327 267C354.3 267 381.7 269 409 262C436.3 255 463.7 239 491 245C518.3 251 545.7 279 573 295C600.3 311 627.7 315 654.8 308C682 301 709 283 736.2 278C763.3 273 790.7 281 818 280C845.3 279 872.7 269 886.3 264L900 259L900 179L886.3 183C872.7 187 845.3 195 818 201C790.7 207 763.3 211 736.2 216C709 221 682 227 654.8 235C627.7 243 600.3 253 573 239C545.7 225 518.3 187 491 182C463.7 177 436.3 205 409 215C381.7 225 354.3 217 327 217C299.7 217 272.3 225 245.2 219C218 213 191 193 163.8 174C136.7 155 109.3 137 82 141C54.7 145 27.3 171 13.7 184L0 197Z" fill="#a2a2a2"></path><path d="M0 445L13.7 447C27.3 449 54.7 453 82 439C109.3 425 136.7 393 163.8 378C191 363 218 365 245.2 385C272.3 405 299.7 443 327 453C354.3 463 381.7 445 409 450C436.3 455 463.7 483 491 488C518.3 493 545.7 475 573 478C600.3 481 627.7 505 654.8 509C682 513 709 497 736.2 491C763.3 485 790.7 489 818 469C845.3 449 872.7 405 886.3 383L900 361L900 257L886.3 262C872.7 267 845.3 277 818 278C790.7 279 763.3 271 736.2 276C709 281 682 299 654.8 306C627.7 313 600.3 309 573 293C545.7 277 518.3 249 491 243C463.7 237 436.3 253 409 260C381.7 267 354.3 265 327 265C299.7 265 272.3 267 245.2 266C218 265 191 261 163.8 248C136.7 235 109.3 213 82 210C54.7 207 27.3 223 13.7 231L0 239Z" fill="#bbbbbb"></path><path d="M0 601L13.7 601C27.3 601 54.7 601 82 601C109.3 601 136.7 601 163.8 601C191 601 218 601 245.2 601C272.3 601 299.7 601 327 601C354.3 601 381.7 601 409 601C436.3 601 463.7 601 491 601C518.3 601 545.7 601 573 601C600.3 601 627.7 601 654.8 601C682 601 709 601 736.2 601C763.3 601 790.7 601 818 601C845.3 601 872.7 601 886.3 601L900 601L900 359L886.3 381C872.7 403 845.3 447 818 467C790.7 487 763.3 483 736.2 489C709 495 682 511 654.8 507C627.7 503 600.3 479 573 476C545.7 473 518.3 491 491 486C463.7 481 436.3 453 409 448C381.7 443 354.3 461 327 451C299.7 441 272.3 403 245.2 383C218 363 191 361 163.8 376C136.7 391 109.3 423 82 437C54.7 451 27.3 447 13.7 445L0 443Z" fill="#d6d6d6"></path></svg>