<svg xmlns="http://www.w3.org/2000/svg" viewBox="0 0 1744 1744" fill="none" shape-rendering="auto" width="512" height="512"><desc>"Notionists" by "Zoish", licensed under "CC0 1.0". / Remix of the original. - Created with dicebear.com</desc><metadata xmlns:dc="http://purl.org/dc/elements/1.1/" xmlns:cc="http://creativecommons.org/ns#" xmlns:rdf="http://www.w3.org/1999/02/22-rdf-syntax-ns#"><rdf:RDF><cc:Work><dc:title>Notionists</dc:title><dc:creator><cc:Agent rdf:about="https://bio.link/heyzoish"><dc:title>Zoish</dc:title></cc:Agent></dc:creator><dc:source>https://heyzoish.gumroad.com/l/notionists</dc:source><cc:license rdf:resource="https://creativecommons.org/publicdomain/zero/1.0/"/></cc:Work></rdf:RDF></metadata><mask id="viewboxMask"><rect width="1744" height="1744" rx="0" ry="0" x="0" y="0" fill="#fff"/></mask><g mask="url(#viewboxMask)"><rect fill="#bae6fd" width="1744" height="1744" x="0" y="0"/><g transform="translate(531 487)"><path d="M554 727.7c-99.2 297-363.8 388.6-503.7 19.8-19.3-50.7 31-69.5 66.2-91.9 24.1-15.3 36.8-28.5 35.3-42.2-7-64.4-36.9-243.8-36.9-243.8l-3-5.8s.7-1.6-2.2 1.2c-3 3-9.9 34.2-37 34.2-24.5 0-49.2-10.9-61-86.3C7.2 285.6 9.6 214 40 201c12.5-5.3 24-7.2 35.2-.8 11.3 6.4-13-22 112-126C268.4 6.4 396.7-3.5 448.5 8 500.3 19.5 552 44.8 574.9 98.5c27.8 65-25.9 114.3-14 262.5-2.2 53.6.8 171.2-146.6 210.6-28 7.5-19.3 48.4 22.7 58.4 67 21 117 72.3 117 97.9" fill="#fff"/><path fill-rule="evenodd" clip-rule="evenodd" d="m554 266.2.1-1.4c4.1-36.4 8.2-71.7 27.1-103.4 6.5 4.4 5.7 10 3.7 15.2-19.9 51.2-18 104.4-16.2 157.6l.4 14c2.1 66.4-14.5 126.8-58.7 177.5-15.4 17.6-35.8 29.8-56.5 40.3-21.4 11-25.9 20.1-19.2 43.6l.8 2.6c1.4 3.9 2.8 7.9-1 11.8-4.5 4.6-9.5 3.3-14.8 1.8l-.6-.1a406.4 406.4 0 0 1-137-68.3c-6-4.4-10.8-10.3-15.5-16.1l-.3-.4c-2.5-3-3-7.8.5-10.4 3.3-2.5 5.8-.5 8.7 1.8l1 .9a145.5 145.5 0 0 0 76.3 31.7c13.4 1.4 26.6.9 40 .4 7.4-.3 14.8-.6 22.3-.5 10.2 0 18.7-4.7 26.7-9.2l2.8-1.6c27.8-15.5 54.3-32.8 72.2-60.7 16.1-25 25.9-52.2 31.6-80.9 7.2-36.1 6.6-72.7 6-109.8-.3-12-.5-24.2-.5-36.4ZM50.6 190.8c21.9-1.7 34 11.2 44.3 26.3a140.4 140.4 0 0 1 22.4 61.5c.5 3.7 1 7.6-1.2 11.3-4.5.6-4.9-3-5-5.6-.5-20.7-9.7-38.7-18.9-56.1-6.6-12.5-16.2-24.6-31.4-27.6-17.2-3.5-33 12-40.8 32.2-14.5 37.6-12 74.6 1.4 111 5.8 15.9 13.1 32.1 27.8 43.2 14.8 11.3 32.7 9.3 43.6-5.7l2-2.5c2-2.6 4-5.1 5-8 2.1-5.8 5.4-11.2 11.3-10.4 6.8 1 8 8.3 8.7 14a3661 3661 0 0 0 22 156.7l5.9 38.8c2.6 17.1 5.6 41.7 3.6 52.1a28 28 0 0 0-.3 2.2c-.4 2.8-.6 5-4.2 5.5-4.9.8-7-2-7.7-6.4-2.3-17-3-23.6-4-49.6-.9-25.2-5.6-50-10.4-74.9l-5-27c-5.2-30.8-10.3-62-10.8-97l-2 3c-7.6 11.3-13.7 20.5-24.5 24a40.5 40.5 0 0 1-46.1-12.5 127.8 127.8 0 0 1-28.8-55.8c-8.4-34-9.9-67.1.9-100.6 5.2-16.1 23.7-44.7 42.2-42Zm34.6 127.5c4.4 3.2 8.4 6 12-5.4-1.1-42.2-14.7-69.2-35.8-70.3 11.2 14.6 22 28.8 23 48.5a32.3 32.3 0 0 1-10.7-8.8c-2-2.2-4-4.4-6.5-6l-3-2.4c-4.8-3.6-9.7-7.4-17.8-4.5 3.8 5.8 9 10 14.3 14 6 4.7 12 9.3 15.6 16.5-10.6 7.7-15.2 17.7-9.7 29.9 4.8 10.5 11.9 19.2 25.9 19.8-.6-6.3-4.7-10.9-8.8-15.4-5-5.4-9.7-10.6-7.5-18.6 3.2-1.5 6.2.7 9 2.7Z" fill="#000"/></g><g transform="translate(178 1057)"><path d="M1303 692 16 688.7S53.5 481.5 111 360C236.9 93.7 489.4 44.3 511.3 56.7c32 18 62.3 40.7 151.4 40.7 91.1 0 148.8-39.5 148.8-39.5s135.3 32.3 200.6 69.5c83.1 47.4 177 187 220.2 295.9 46 115.6 70.7 268.7 70.7 268.7Z" fill="#fff"/><path fill-rule="evenodd" clip-rule="evenodd" d="M1296.8 692c-6.3-26-11.8-51.9-17.3-77.9l-8.4-39c-8-36.6-18.6-72.3-30-107.6a678.2 678.2 0 0 0-42.1-102.8l-7-13.7a802.4 802.4 0 0 0-27.6-50.7c-27.4-45.3-58.1-88.3-97-124a334.8 334.8 0 0 0-102.4-65c-7-2.8-13.8-6-20.7-9.1-7.9-3.7-15.8-7.3-24-10.5-10.6-4-14.4-.7-18.8 7.3-8 14.7-18 28-32.9 36-40.3 21.6-82.3 33.2-126.5 13.6a138 138 0 0 1-48.6-35.4c-6-7-12.2-8.3-20.5-9.5-22-3.3-36.7 4.7-49 23.1-16.3 24.2-42.3 33.2-69.5 35.8a146.6 146.6 0 0 1-108-31.8A203.2 203.2 0 0 1 402 86.5l-9.7 4.5c-6.9 3.1-13.6 6.2-19.8 10-9.6 6-19.7 11-29.8 16a347.3 347.3 0 0 0-34 18.9 454.4 454.4 0 0 0-85.4 73.7 604 604 0 0 0-86.3 122.8 869 869 0 0 0-50 108.1 1216.5 1216.5 0 0 0-34 102 562 562 0 0 0-20.2 102.2c-.6 6.8-2.1 13.6-3.7 20.4-1.9 8.3-3.8 16.8-4.1 25.8-5.5 1-10.6 1-16.9 1 4.5-32.9 9.7-66 16-98.8 2.3-12 5.3-23.7 8.3-35.4l5.3-21.5c5.2-22.6 12.6-44.6 20-66.6l.9-2.7a836.3 836.3 0 0 1 83-179c17-27.2 36-53 57.1-77 37.3-43 79.1-80.3 130-105.9l10.8-5.4c36-18.2 72-36.4 112-44.2 11.1-2.1 22.2-4.6 33-7.6 12.7-3.5 15.2-9.1 10.3-21.1l-1-2.2c-.7-1.6-1.4-3.3-1.7-5v-.4c-.6-3.6-1.2-7.8 3.8-8.9 4.3-1 5.5 1.6 7 5l.6 1.1c1.6 3.2 3 6.5 4.5 9.7 4.8 10.8 9.6 21.7 18.6 30.6a101 101 0 0 0 59.7 27.2l5.3.7c24.8 3.3 49.7 6.7 75 5.4 35.3-1.8 70.2-5.5 104-16.5 5.2-1.7 9.7-4.8 14-8.3 7-5.8 6.5-10.6.5-16.8-8.9-9.2-11-20.6-10.3-32.6 4-1.5 7-.5 7.6 1.8 7 30.4 29.6 36 55.8 39 33.8 3.8 66.1 14.3 98.5 25 25.4 8.5 48.3 21.6 71.2 34.6l18.6 10.5c25 13.8 47.2 32.1 66.9 53.2 22.7 24.3 43.9 50 62.4 77.6 16.1 24 31.5 48.6 45 74.5a1007.4 1007.4 0 0 1 86.5 242c5.6 25.4 9.8 51.3 14.1 77.5 2.2 13.2 4.3 26.4 6.7 39.7-3.2.9-6.7.9-11.2.9ZM573 143a83.8 83.8 0 0 0 49.7-37.7 17 17 0 0 0-9.2-3.5l-2.8-.5a470 470 0 0 0-19.9-3.9c-27-4.8-54-9.7-74-32.8-1.3-1.5-4.6-1.7-7-1.8-27.5-.5-53.4 6.9-79.4 14.3l-11.2 3.2c.8 5.6 2.6 9 5.8 12.2a224 224 0 0 0 39.6 32.5c32.9 21 67.9 30.7 108.4 18Zm224 .3c-31.6 4.3-57.1-9-81-27.6-1.6-1.7-3.3-3-4.9-4.2-3-2.4-5.7-4.5-6.9-8.4 10.1-3.8 20.6-5.8 31.1-7.9 11.2-2.1 22.4-4.3 33-8.6l5.4-1.8c4.3-1.4 8.7-2.8 11.8-5.8 16.7-16.2 36.2-15.6 56.2-10.6 13 3.3 26 7 39.5 11l19 5.6-5.6 6.5c-14.1 16.6-26.6 31.3-46.9 38.5-16.7 6-33.2 11-50.7 13.3Z" fill="#000"/><path d="M1115.6 692c-9.1-36.9-12.1-74.7-22-111.2-7.7-28.1-13.9-56.8-23.8-84-7-19.4-13.7-39-23-57.8-12.7-25-23.1-51.2-34.4-77-1.3-3-2.9-6.3 1.3-8.8 4.3-2.6 7.4-.5 9.8 2.6 3.8 5 7.8 10.2 10.6 15.9 10 20.4 19.4 41.1 29.1 61.6A612.7 612.7 0 0 1 1097 529c9 31.6 17.5 63.6 21.5 96.6 2.6 21.4 7 42.7 8.6 65.4-3.3 1-6.8 1-11.4 1ZM221.2 692c-.6-3 .4-5.8.4-8.7 0-49.6 9.6-98 16.6-146.7 5-35 13.3-69 22.5-102.9a253.5 253.5 0 0 1 31.6-69c2.3-3.6 4-10 10-6.9 6.1 3.2 3.2 9 1.4 13.6-7.2 17.6-15.9 34.7-21.8 52.7a748.3 748.3 0 0 0-31 138.7c-1 8.5-2.7 16.8-4.9 25-7.4 28.5-3.8 58.4-10.9 87-1.1 4.7.3 10.1.3 16.2-4.5 1-8.9 1-14.2 1Z" fill="#000"/><path fill-rule="evenodd" clip-rule="evenodd" d="M645.9 165.5c-9 6.6-10.5 15.7-3.6 28.3l4 2.7c2.3 1.5 4.3 3 6.5 3.6 9.5 3 17-2 21.6-9.1 4.7-7 5.5-16.9-1.9-22-7.3-5.1-16.6-10.9-26.6-3.5Zm5.4 17.4Zm0 0c3.8 2.8 7.6 3.4 10.9-.5a3.4 3.4 0 0 0-1.2-5.3c-4.4-1.6-9.2-2.6-9.7 5.8Z" fill="#000"/></g><g transform="translate(266 207)"><path d="M653 303.5a178 178 0 0 0-130 3.8c-20 8-40.4 15-57.8 28.5-21.5 16.8-35.9 39.1-49.2 62.3-13 22.8-19.8 47.8-26.9 72.7-6.3 22-2.6 11.8-1.2 33.7 1.1 18.5 1 36.4-4.1 54.3-1.2 4-3.3 6.7-7.8 8.7-9.4-14.5-10.7-32-17.9-47.2-6.8-14.6-14.3-29.1-27.7-37.1-19.3-11.4-21-28.5-20.7-47 .4-33.2 0-66.6 9-98.8 3.7-13.7 12-26 17.5-39.2 13.3-32 36.5-55.7 62.7-77 15.2-12.2 20-12.1 36.5-2.5 5.1-5 2-9.9-1.5-13-7.6-6.8-5.4-12.6.5-18.3 8.6-8.5 16.2-19.3 31.4-14.4 4 1.2 7.6-3.2 11.3-5 18.1-8.8 36.3-18.5 57.3-5 7.3-20.4 23.6-24.8 41.8-27.3 30.6-4 61.3-3.3 92-2.7 12.6.3 17.4 5.8 17.7 18.3.2 4.6 0 9.2 0 15.6 10-4 13.9-11.6 16-19 3.4-13.2 10-19 24.4-18.3 13.1.7 26.1 3.5 38.5 8.1 23.8 8.7 49.5 12.5 71 27.4a43 43 0 0 1 15.6 19.2c7.7 17.4 21.7 33.2 13.8 54.9 7.9-9.8 3.7-20.5 3.8-31.6 11 2.8 10.4 12.4 12.7 19.1a37.8 37.8 0 0 1 1 20.2c-4.5 18 4.7 32.4 10.7 47.9 5 12.5 3.6 25.9.4 38.8-9.7 39.1-25.5 76-44.2 111.6-3 6-8.1 10.7-9.3 17.8-.4 2.4-2 4.7-5.5 3.9-3-.8-5-2.8-4.3-5.5 9.2-33-11.7-59.8-19.2-89.3a176 176 0 0 1-6.7-52.9c.5-9.1-3-12.7-12.4-13.5-40-3.5-76.2 19.4-114 5.8-8-2.9-16.1-5.1-25.1-8Z" fill="#000"/></g><g transform="translate(791 871)"><path d="M169 101c4.8-14.2 4-16.2-9.8-18.7-10.2-1.8-19.3-6.3-29-9.4-10.9-3.5-18-13.8-29.5-16.5-6 29.8 33.7 56.5 68.2 44.7Z" fill="#fff"/><path fill-rule="evenodd" clip-rule="evenodd" d="M97.6 96.6a76.7 76.7 0 0 0 67.5 21.2l6.4-2.5c4.8-1.9 9.2-3.5 13.2-5.8 5.2-3 9.3-9.2 4.8-13.8-10-10.3-5-16.2 4-22.2 4-2.6 6.4-6.2 4.3-10.7-2.7-6-8-3.8-12-2a50 50 0 0 1-17.4 3.3c-24.8 2.8-44.9-9-64.8-20.5l-.6-.3c-11.8-7-19-4.6-20.5 9.2a50.7 50.7 0 0 0 15.1 44.1Zm61.6-14.3c13.9 2.5 14.6 4.5 9.7 18.8-34.5 11.8-74.2-15-68.2-44.7 6 1.5 11 5 15.8 8.6a49 49 0 0 0 13.7 8c3.3 1 6.5 2.2 9.7 3.4 6.3 2.4 12.5 4.8 19.3 6Z" fill="#000"/><path d="M67 37c8.2 3.7 7.7 9.3 4.2 15-2.6 4.5-6.5 7.2-11.7 4-4.8-3-3.7-7.1-1-11 2.2-3 3-7.3 8.5-8Z" fill="#000"/></g><g transform="translate(653 805)"><path d="M138.5 199.8c0-10 62.6 41.1 126.8 25 24.4-6.1 16.3-36.7 16.3-36.7l22.6-2.3s-3.3 28.5 5.3 32c36.5 14.4 81.5-48.4 84.9-33 5.5 25.1-19.6 60.3-28 74-12.3 19.6-35.4 40.6-51.2 43.4-82.2 14.9-176.7-72.5-176.7-102.4ZM219.4 134.6c-15.3 0-25-7-27.6-18.5-2.8-13.1 4.9-27.4 17.2-34 13-7 27.5-5.5 40-3.2 14.5 2.7 29.7 1.9 43.7 7a16 16 0 0 0 12.3-.2 39.3 39.3 0 0 1 17.6-2.7 296 296 0 0 0 42.8-.3c13.4-.9 22.2 7.5 26.1 22.6 2.5 9.3-3.8 23-13.3 28a33.6 33.6 0 0 1-34-.5c-6.8-3.7-12.9-6.4-21.4-2.9a20 20 0 0 1-19.6-2c-4.3-3.5-8.2-3.9-12.8-1.3-1.4.8-3.7 1.7-4.9 1-14.6-7-29.4-2.2-44.3-1.4-8.4.4-13 8-21.8 8.4Z" fill="#000"/></g><g transform="translate(901 668)"><path d="M65.7 43.5c-4.3 23.6-7.3 45.8-.3 68.8A79.4 79.4 0 0 0 98 157.1c22.3 14.8 22.7 43 .4 57.5-24.6 16.2-50.8 14-77 7.5-11.8-3-17.9-14.2-21-25.4-2.7-9.6 6.5-25.2 16.6-31 3.1 3.8 2.4 7 .2 11.3-6.7 12.3 0 31.4 13.5 32.6 19.8 1.7 40.7 5.8 59.1-8 12.5-9.4 14-21.5 1.8-31.4-7.3-5.9-14.4-11.7-20.6-18.8-28-31.7-29.9-68.2-20-107 3.5-14.3 9.2-27 19-38C73 3 76-.9 80.5 2c5.9 3.9 1.2 8.4-1 12-5.6 9-10.6 18.3-13.8 29.5Z" fill="#000"/></g><g transform="translate(610 680)"><path d="M215.1 76.6c5-12 9-29.4 24.1-22.5 20.7 9.4 13.9 30.7 9.7 47.4-1.6 6.3-14.5 15.9-18.3 14.3-16.3-6.8-19.2-21.7-15.5-39.2ZM442 113.4c-8.6 7.5-17 7.6-22.2-1.5-9-16-8.6-32.8 3.3-47.2 2.5-3 13.8-3.6 16.3-1 14 15 14.6 31.8 2.6 49.7Z" fill="#000"/></g><g transform="translate(610 680)"/><g transform="translate(774 657)"><path d="M30.3 32.1C58 10 89.8 13.1 121 14.1c5.7 0 12.2 1.3 14.3 8.3 2.1 7.7-4.6 9.9-8.8 13.8a44.7 44.7 0 0 1-52.2 8.6 37.9 37.9 0 0 0-31.9 1.6c-2 1-3.8 1.9-5.8 2.6-6.3 2.5-14.3 6-18.6-.4-4.4-6.7 5.6-9 8.3-13.7.6-1 2-1.6 3.9-2.8ZM294.4 23.8c7.7 4.3 14.5 10 20 17 2.5 3 5 6.3 3 10.2-2.4 4.3-6.7 2.7-10.4 2.2-12.5-1.5-23.7-9.2-37-7.2-5 .8-9.9.7-15 2.5-13 4.7-31-6.4-33-19.8-1-5.4 1-8.5 6.8-10 22.2-5.7 44-9 65.6 5.1Z" fill="#000"/></g><g transform="translate(0 559)"><path d="M1344.8 1191.5c0-22.8-13.6-101.4-6.4-126.7 7.3-25.5 39.4-68.3 35.4-142-2.6-48.4-15.4-82.8-48.3-106-19.6-14-50-36-72.2-26.1l-68.9 30.3-26.6 24.5s46.2 9.8 66 0c33.1-16.4 74.2 7.5 74.2 7.5s-102.8.8-127.4 29.8c-12.3 14.6-16 39-10.8 49.5 5.2 10.4 10.3 31.4 15.9 37 17.1 17.2 41 6.2 26.6 29.3-9.4 15 37.5 17.1 14 45.4-13.7 16.6 12.4 33 16.2 44.2 8.4 24.8-17.8 103.3-17.8 103.3h130.1Z" fill="#fff"/><path d="M1335 813.4c1.7-25.4 21.1-264.5 3.4-266.6-17.7-2-177.3 9.5-183.9 7.8-6.5-1.7-10 206.2-8.3 242 1.6 35.8 2.2 83.8 2.2 83.8l17.3 6.2s58.1-23 74.3-23c16.2 0 53.7-8.9 53.7-8.9l41.3-41.3Z" fill="#fff"/><path fill-rule="evenodd" clip-rule="evenodd" d="M1334.7 1194c2.6-18.7.7-37.5-1.2-56.1-.8-8-1.6-16-2-24l-.2-2.1v-1.4c-1.6-27-3.1-52.9 13.7-77.3 8.7-12.7 10.7-28.2 12.7-43.4a317 317 0 0 1 2-14.3c7.8-43.3 6.5-86.3-13.6-127.2-4.9-10-13.3-15.4-21.7-20.8-2.9-1.9-5.7-3.7-8.4-5.7-5.2-3.9-11-7-16.8-10.1-5-2.7-10.1-5.5-14.8-8.7-10.2-7-20-7-31-2.6-5.5 2.3-11.1 4.4-16.7 6.6-18.5 7-37 14.1-53.3 26.3l-2.5 1.7c-2.6 1.7-5.2 3.4-6.6 6.6 17.5 4 34-.8 50-5.5 29.9-8.6 57-6 81.4 14.4 4 3.4 6 6.8 4.1 11.6a831 831 0 0 0-111.5 15.9c-13.3 3-33.5 25-34.2 38.6-.5 9.6 7 9 12.4 6.6 29-12.6 59.8-14.2 90.6-15.9l13-.7c6-.4 11.8 1 17.6 2.5l4.9 1.2c4 .8 8.5 2.2 8.9 8.5-5 4.3-11.1 3.7-17 3l-5.7-.4a328 328 0 0 0-45.8 3.9c-11.7 1.5-23.4 3-35.2 3.6-8 .4-16.3 3.8-24 7.1-5.8 2.5-11.3 6.7-9.4 14.7 2.7 11 9.5 18.4 21 19.3 12.6 1 25.7 2 38.2.2a318 318 0 0 1 64.8-.5l18 1h2c3.2-.2 6.8-.3 7 4.4.2 6-5.5 6.2-9.3 6.3l-4.8.2a917 917 0 0 1-55.1 1c-18.1-.4-34.2 3-48.9 18.7 8.5 2.7 16 7 23.4 11.3 13.6 8 26.7 15.6 44.2 12.1.6 0 1.2-.2 1.9-.4 5.7-1.2 14.4-3.2 15.1 5.2.6 7.4-6.8 7.7-12.6 7.8a50 50 0 0 0-3.5.2c-16 1.6-32.1 1.5-46.7-7-11.1 18-9.3 32.7 5 47.5 8.3 8.7 9.8 20 7.7 31-5.1 27.4-11.2 54.5-17.4 82.5l-.4 1.8c-4.8.7-9.8 1-14.8.9 1.7-9.1 3.6-18.2 5.5-27.2 4.4-21.6 8.8-43.2 10.7-65.2.5-6.3-1.7-11-5.7-16.1-12.6-16-17.5-33.9-8-53.4 3.3-6.8 3.5-11.7-4.7-15.3-17.3-7.6-18.7-13.5-6.8-31.5-15.5-1.2-29.3-8.7-33.1-21.7-1.8-6.2-4.4-12.2-7-18.2-5.2-11.7-10.3-23.4-9.5-36.8 0-.7.2-1.6.4-2.4.3-1.7.6-3.3 0-3.8-12.3-9.8-11.7-23-11.2-35.7.2-3.6.4-7.2.2-10.6-1.8-43.3-1.4-86.6.2-129.9.7-20 .8-40.2 1-60.3 0-20.2.2-40.3 1-60.4V604c.5-14.8 1-29.6 1-44.3-.2-9.6 4.5-13.6 12.8-13.7 25-.2 49.7-1.5 74.6-2.8 33.4-1.8 66.7-3.5 100.2-2.7 14.7.4 16.3 3.5 17 18.4 1.3 23 1.3 45.7.7 68.6l-.3 9.4c-.5 20.2-1.1 40.4-2 60.6-1.9 40.3-1.7 80.7-1.3 121 .1 7.6 4.5 13 9 18.6 2.6 3.1 5.2 6.3 7 9.9 16.3 32.8 19.7 67.4 15.9 102.8l-1 10c-2.2 21-4.4 42-10 62.8a90 90 0 0 1-10.6 22.6l-4.5 8c-4 7.4-6.1 15.7-6.2 24.2-.7 25.2 1.5 50.3 3.6 75.4l1.2 14.7c.6 6.2.3 12.5 0 19.4l-.1 6c-4.6 1.2-9 1.2-14.5 1.2Zm-15.8-399.6c3.3-3 5.7-6.7 5.8-11 .2-12.4 1.8-24.6 3.4-36.9a333 333 0 0 0 3.4-37.3 4407 4407 0 0 1 2.3-80.5l1.4-43.2v-.8c.7-21.5.8-26.6-28-27.2-20.7-.3-41.4.5-62 1.4-22.2 1-44.3 2-66.5 1.3-1.4 0-3 .3-4.4.7l-3 .6c-9.8 1.2-14 6.7-14 16.4l.2 12.9c.3 14.8.5 29.6-.4 44.4-2.7 42.4-3.8 84.8-4 127.2a158 158 0 0 0 9 51.2c2.2 6.5 7.3 11.2 13.5 6 13.8-11.6 30-17.8 46.2-24 5.5-2 11-4.2 16.3-6.5 19-8 38.3-11.6 56.4 1.7a24 24 0 0 0 24.4 3.6Zm-91.8 56.3c6.2-1.5 12.4-3 18.7-4.2 2.8.3 5.5-.1 8-.5 4.7-.6 9-1.2 13.3 2.2-6.5 5.4-13.9 5.7-21.2 6-3.4.1-6.8.3-10 1l-17.6 3a196 196 0 0 0-43 10.4c-4.3 1.8-8.6 3.1-13.3.3-4.6-2.8-4.7-6.7-3.6-11 1-4 3.6-5.5 7.7-4.1 21 6.8 41 1.8 61-3Z" fill="#000"/><path d="M1382.3 427.6c-10.3 8-14.3 20-22.6 28.4-3.6 3.7-7.7 8.2-13.2 5-5.9-3.6-4.7-10.5-2-15a72.6 72.6 0 0 1 23.6-25.6c6.2-3.8 13.6-4.8 14.2 7.2ZM1262.8 411.4c-1.2-6.4-3.7-13 3.7-15 6.8-1.7 12 3.7 12.9 9.7 1.5 11.9 5.5 23 8.7 34.4 1 3.3 2.3 7.8-3 9.6-4.9 1.6-7.8-2-9.2-5-4.7-10.7-8.6-21.8-13-33.7ZM1448.7 597.7c3.8 6.5 13.7 12 6.3 18.7-6.8 6.1-12.5-3-18-6.8-5-3.6-9.5-8.3-14.5-12-5.6-4-6.9-9-3-14 3.8-4.7 9.2-3.8 13.5 0 5.2 4.3 10 8.9 15.7 14ZM1432 547.3c-6.6-.8-12-3.4-11-10 .8-6 6.5-7.1 12-7.1 11.4 0 23-.4 31 10.5-8.3 14.6-20.5 6.9-32 6.6ZM1300.9 623.8c-11-6.1-15.7-18.8-10.8-28 2.8-5.6 9-8.5 15.1-7.2 6.4 1.5 12.4 5.4 13.7 13.4 1.8 11-4.9 19.7-18 21.8Z" fill="#000"/></g></g></svg>