<svg xmlns="http://www.w3.org/2000/svg" viewBox="0 0 1744 1744" fill="none" shape-rendering="auto" width="512" height="512"><desc>"Notionists" by "Zoish", licensed under "CC0 1.0". / Remix of the original. - Created with dicebear.com</desc><metadata xmlns:dc="http://purl.org/dc/elements/1.1/" xmlns:cc="http://creativecommons.org/ns#" xmlns:rdf="http://www.w3.org/1999/02/22-rdf-syntax-ns#"><rdf:RDF><cc:Work><dc:title>Notionists</dc:title><dc:creator><cc:Agent rdf:about="https://bio.link/heyzoish"><dc:title>Zoish</dc:title></cc:Agent></dc:creator><dc:source>https://heyzoish.gumroad.com/l/notionists</dc:source><cc:license rdf:resource="https://creativecommons.org/publicdomain/zero/1.0/"/></cc:Work></rdf:RDF></metadata><mask id="viewboxMask"><rect width="1744" height="1744" rx="0" ry="0" x="0" y="0" fill="#fff"/></mask><g mask="url(#viewboxMask)"><rect fill="#bae6fd" width="1744" height="1744" x="0" y="0"/><g transform="translate(531 487)"><path d="M554 727.7c-99.2 297-363.8 388.6-503.7 19.8-19.3-50.7 31-69.5 66.2-91.9 24.1-15.3 36.8-28.5 35.3-42.2-7-64.4-36.9-243.8-36.9-243.8l-3-5.8s.7-1.6-2.2 1.2c-3 3-9.9 34.2-37 34.2-24.5 0-49.2-10.9-61-86.3C7.2 285.6 9.6 214 40 201c12.5-5.3 24-7.2 35.2-.8 11.3 6.4-13-22 112-126C268.4 6.4 396.7-3.5 448.5 8 500.3 19.5 552 44.8 574.9 98.5c27.8 65-25.9 114.3-14 262.5-2.2 53.6.8 171.2-146.6 210.6-28 7.5-19.3 48.4 22.7 58.4 67 21 117 72.3 117 97.9" fill="#fff"/><path fill-rule="evenodd" clip-rule="evenodd" d="m554 266.2.1-1.4c4.1-36.4 8.2-71.7 27.1-103.4 6.5 4.4 5.7 10 3.7 15.2-19.9 51.2-18 104.4-16.2 157.6l.4 14c2.1 66.4-14.5 126.8-58.7 177.5-15.4 17.6-35.8 29.8-56.5 40.3-21.4 11-25.9 20.1-19.2 43.6l.8 2.6c1.4 3.9 2.8 7.9-1 11.8-4.5 4.6-9.5 3.3-14.8 1.8l-.6-.1a406.4 406.4 0 0 1-137-68.3c-6-4.4-10.8-10.3-15.5-16.1l-.3-.4c-2.5-3-3-7.8.5-10.4 3.3-2.5 5.8-.5 8.7 1.8l1 .9a145.5 145.5 0 0 0 76.3 31.7c13.4 1.4 26.6.9 40 .4 7.4-.3 14.8-.6 22.3-.5 10.2 0 18.7-4.7 26.7-9.2l2.8-1.6c27.8-15.5 54.3-32.8 72.2-60.7 16.1-25 25.9-52.2 31.6-80.9 7.2-36.1 6.6-72.7 6-109.8-.3-12-.5-24.2-.5-36.4ZM50.6 190.8c21.9-1.7 34 11.2 44.3 26.3a140.4 140.4 0 0 1 22.4 61.5c.5 3.7 1 7.6-1.2 11.3-4.5.6-4.9-3-5-5.6-.5-20.7-9.7-38.7-18.9-56.1-6.6-12.5-16.2-24.6-31.4-27.6-17.2-3.5-33 12-40.8 32.2-14.5 37.6-12 74.6 1.4 111 5.8 15.9 13.1 32.1 27.8 43.2 14.8 11.3 32.7 9.3 43.6-5.7l2-2.5c2-2.6 4-5.1 5-8 2.1-5.8 5.4-11.2 11.3-10.4 6.8 1 8 8.3 8.7 14a3661 3661 0 0 0 22 156.7l5.9 38.8c2.6 17.1 5.6 41.7 3.6 52.1a28 28 0 0 0-.3 2.2c-.4 2.8-.6 5-4.2 5.5-4.9.8-7-2-7.7-6.4-2.3-17-3-23.6-4-49.6-.9-25.2-5.6-50-10.4-74.9l-5-27c-5.2-30.8-10.3-62-10.8-97l-2 3c-7.6 11.3-13.7 20.5-24.5 24a40.5 40.5 0 0 1-46.1-12.5 127.8 127.8 0 0 1-28.8-55.8c-8.4-34-9.9-67.1.9-100.6 5.2-16.1 23.7-44.7 42.2-42Zm34.6 127.5c4.4 3.2 8.4 6 12-5.4-1.1-42.2-14.7-69.2-35.8-70.3 11.2 14.6 22 28.8 23 48.5a32.3 32.3 0 0 1-10.7-8.8c-2-2.2-4-4.4-6.5-6l-3-2.4c-4.8-3.6-9.7-7.4-17.8-4.5 3.8 5.8 9 10 14.3 14 6 4.7 12 9.3 15.6 16.5-10.6 7.7-15.2 17.7-9.7 29.9 4.8 10.5 11.9 19.2 25.9 19.8-.6-6.3-4.7-10.9-8.8-15.4-5-5.4-9.7-10.6-7.5-18.6 3.2-1.5 6.2.7 9 2.7Z" fill="#000"/></g><g transform="translate(178 1057)"><path d="M1303 692 16 688.7S53.5 481.5 111 360C236.9 93.7 489.4 44.3 511.3 56.7c32 18 62.3 40.7 151.4 40.7 91.1 0 148.8-39.5 148.8-39.5s135.3 32.3 200.6 69.5c83.1 47.4 177 187 220.2 295.9 46 115.6 70.7 268.7 70.7 268.7Z" fill="#fff"/><path fill-rule="evenodd" clip-rule="evenodd" d="M1296.8 692c-6.3-26-11.8-51.9-17.3-77.9l-8.4-39c-8-36.6-18.6-72.3-30-107.6a678.2 678.2 0 0 0-42.1-102.8l-7-13.7a802.4 802.4 0 0 0-27.6-50.7c-27.4-45.3-58.1-88.3-97-124a334.8 334.8 0 0 0-102.4-65c-7-2.8-13.8-6-20.7-9.1-7.9-3.7-15.8-7.3-24-10.5-10.6-4-14.4-.7-18.8 7.3-8 14.7-18 28-32.9 36-40.3 21.6-82.3 33.2-126.5 13.6a138 138 0 0 1-48.6-35.4c-6-7-12.2-8.3-20.5-9.5-22-3.3-36.7 4.7-49 23.1-16.3 24.2-42.3 33.2-69.5 35.8a146.6 146.6 0 0 1-108-31.8A203.2 203.2 0 0 1 402 86.5l-9.7 4.5c-6.9 3.1-13.6 6.2-19.8 10-9.6 6-19.7 11-29.8 16a347.3 347.3 0 0 0-34 18.9 454.4 454.4 0 0 0-85.4 73.7 604 604 0 0 0-86.3 122.8 869 869 0 0 0-50 108.1 1216.5 1216.5 0 0 0-34 102 562 562 0 0 0-20.2 102.2c-.6 6.8-2.1 13.6-3.7 20.4-1.9 8.3-3.8 16.8-4.1 25.8-5.5 1-10.6 1-16.9 1 4.5-32.9 9.7-66 16-98.8 2.3-12 5.3-23.7 8.3-35.4l5.3-21.5c5.2-22.6 12.6-44.6 20-66.6l.9-2.7a836.3 836.3 0 0 1 83-179c17-27.2 36-53 57.1-77 37.3-43 79.1-80.3 130-105.9l10.8-5.4c36-18.2 72-36.4 112-44.2 11.1-2.1 22.2-4.6 33-7.6 12.7-3.5 15.2-9.1 10.3-21.1l-1-2.2c-.7-1.6-1.4-3.3-1.7-5v-.4c-.6-3.6-1.2-7.8 3.8-8.9 4.3-1 5.5 1.6 7 5l.6 1.1c1.6 3.2 3 6.5 4.5 9.7 4.8 10.8 9.6 21.7 18.6 30.6a101 101 0 0 0 59.7 27.2l5.3.7c24.8 3.3 49.7 6.7 75 5.4 35.3-1.8 70.2-5.5 104-16.5 5.2-1.7 9.7-4.8 14-8.3 7-5.8 6.5-10.6.5-16.8-8.9-9.2-11-20.6-10.3-32.6 4-1.5 7-.5 7.6 1.8 7 30.4 29.6 36 55.8 39 33.8 3.8 66.1 14.3 98.5 25 25.4 8.5 48.3 21.6 71.2 34.6l18.6 10.5c25 13.8 47.2 32.1 66.9 53.2 22.7 24.3 43.9 50 62.4 77.6 16.1 24 31.5 48.6 45 74.5a1007.4 1007.4 0 0 1 86.5 242c5.6 25.4 9.8 51.3 14.1 77.5 2.2 13.2 4.3 26.4 6.7 39.7-3.2.9-6.7.9-11.2.9ZM573 143a83.8 83.8 0 0 0 49.7-37.7 17 17 0 0 0-9.2-3.5l-2.8-.5a470 470 0 0 0-19.9-3.9c-27-4.8-54-9.7-74-32.8-1.3-1.5-4.6-1.7-7-1.8-27.5-.5-53.4 6.9-79.4 14.3l-11.2 3.2c.8 5.6 2.6 9 5.8 12.2a224 224 0 0 0 39.6 32.5c32.9 21 67.9 30.7 108.4 18Zm224 .3c-31.6 4.3-57.1-9-81-27.6-1.6-1.7-3.3-3-4.9-4.2-3-2.4-5.7-4.5-6.9-8.4 10.1-3.8 20.6-5.8 31.1-7.9 11.2-2.1 22.4-4.3 33-8.6l5.4-1.8c4.3-1.4 8.7-2.8 11.8-5.8 16.7-16.2 36.2-15.6 56.2-10.6 13 3.3 26 7 39.5 11l19 5.6-5.6 6.5c-14.1 16.6-26.6 31.3-46.9 38.5-16.7 6-33.2 11-50.7 13.3Z" fill="#000"/><path d="M1115.6 692c-9.1-36.9-12.1-74.7-22-111.2-7.7-28.1-13.9-56.8-23.8-84-7-19.4-13.7-39-23-57.8-12.7-25-23.1-51.2-34.4-77-1.3-3-2.9-6.3 1.3-8.8 4.3-2.6 7.4-.5 9.8 2.6 3.8 5 7.8 10.2 10.6 15.9 10 20.4 19.4 41.1 29.1 61.6A612.7 612.7 0 0 1 1097 529c9 31.6 17.5 63.6 21.5 96.6 2.6 21.4 7 42.7 8.6 65.4-3.3 1-6.8 1-11.4 1ZM221.2 692c-.6-3 .4-5.8.4-8.7 0-49.6 9.6-98 16.6-146.7 5-35 13.3-69 22.5-102.9a253.5 253.5 0 0 1 31.6-69c2.3-3.6 4-10 10-6.9 6.1 3.2 3.2 9 1.4 13.6-7.2 17.6-15.9 34.7-21.8 52.7a748.3 748.3 0 0 0-31 138.7c-1 8.5-2.7 16.8-4.9 25-7.4 28.5-3.8 58.4-10.9 87-1.1 4.7.3 10.1.3 16.2-4.5 1-8.9 1-14.2 1Z" fill="#000"/><path fill-rule="evenodd" clip-rule="evenodd" d="M645.9 165.5c-9 6.6-10.5 15.7-3.6 28.3l4 2.7c2.3 1.5 4.3 3 6.5 3.6 9.5 3 17-2 21.6-9.1 4.7-7 5.5-16.9-1.9-22-7.3-5.1-16.6-10.9-26.6-3.5Zm5.4 17.4Zm0 0c3.8 2.8 7.6 3.4 10.9-.5a3.4 3.4 0 0 0-1.2-5.3c-4.4-1.6-9.2-2.6-9.7 5.8Z" fill="#000"/></g><g transform="translate(266 207)"><path d="M653 303.5a178 178 0 0 0-130 3.8c-20 8-40.4 15-57.8 28.5-21.5 16.8-35.9 39.1-49.2 62.3-13 22.8-19.8 47.8-26.9 72.7-6.3 22-2.6 11.8-1.2 33.7 1.1 18.5 1 36.4-4.1 54.3-1.2 4-3.3 6.7-7.8 8.7-9.4-14.5-10.7-32-17.9-47.2-6.8-14.6-14.3-29.1-27.7-37.1-19.3-11.4-21-28.5-20.7-47 .4-33.2 0-66.6 9-98.8 3.7-13.7 12-26 17.5-39.2 13.3-32 36.5-55.7 62.7-77 15.2-12.2 20-12.1 36.5-2.5 5.1-5 2-9.9-1.5-13-7.6-6.8-5.4-12.6.5-18.3 8.6-8.5 16.2-19.3 31.4-14.4 4 1.2 7.6-3.2 11.3-5 18.1-8.8 36.3-18.5 57.3-5 7.3-20.4 23.6-24.8 41.8-27.3 30.6-4 61.3-3.3 92-2.7 12.6.3 17.4 5.8 17.7 18.3.2 4.6 0 9.2 0 15.6 10-4 13.9-11.6 16-19 3.4-13.2 10-19 24.4-18.3 13.1.7 26.1 3.5 38.5 8.1 23.8 8.7 49.5 12.5 71 27.4a43 43 0 0 1 15.6 19.2c7.7 17.4 21.7 33.2 13.8 54.9 7.9-9.8 3.7-20.5 3.8-31.6 11 2.8 10.4 12.4 12.7 19.1a37.8 37.8 0 0 1 1 20.2c-4.5 18 4.7 32.4 10.7 47.9 5 12.5 3.6 25.9.4 38.8-9.7 39.1-25.5 76-44.2 111.6-3 6-8.1 10.7-9.3 17.8-.4 2.4-2 4.7-5.5 3.9-3-.8-5-2.8-4.3-5.5 9.2-33-11.7-59.8-19.2-89.3a176 176 0 0 1-6.7-52.9c.5-9.1-3-12.7-12.4-13.5-40-3.5-76.2 19.4-114 5.8-8-2.9-16.1-5.1-25.1-8Z" fill="#000"/></g><g transform="translate(791 871)"><path d="M169 101c4.8-14.2 4-16.2-9.8-18.7-10.2-1.8-19.3-6.3-29-9.4-10.9-3.5-18-13.8-29.5-16.5-6 29.8 33.7 56.5 68.2 44.7Z" fill="#fff"/><path fill-rule="evenodd" clip-rule="evenodd" d="M97.6 96.6a76.7 76.7 0 0 0 67.5 21.2l6.4-2.5c4.8-1.9 9.2-3.5 13.2-5.8 5.2-3 9.3-9.2 4.8-13.8-10-10.3-5-16.2 4-22.2 4-2.6 6.4-6.2 4.3-10.7-2.7-6-8-3.8-12-2a50 50 0 0 1-17.4 3.3c-24.8 2.8-44.9-9-64.8-20.5l-.6-.3c-11.8-7-19-4.6-20.5 9.2a50.7 50.7 0 0 0 15.1 44.1Zm61.6-14.3c13.9 2.5 14.6 4.5 9.7 18.8-34.5 11.8-74.2-15-68.2-44.7 6 1.5 11 5 15.8 8.6a49 49 0 0 0 13.7 8c3.3 1 6.5 2.2 9.7 3.4 6.3 2.4 12.5 4.8 19.3 6Z" fill="#000"/><path d="M67 37c8.2 3.7 7.7 9.3 4.2 15-2.6 4.5-6.5 7.2-11.7 4-4.8-3-3.7-7.1-1-11 2.2-3 3-7.3 8.5-8Z" fill="#000"/></g><g transform="translate(653 805)"><path d="M138.5 199.8c0-10 62.6 41.1 126.8 25 24.4-6.1 16.3-36.7 16.3-36.7l22.6-2.3s-3.3 28.5 5.3 32c36.5 14.4 81.5-48.4 84.9-33 5.5 25.1-19.6 60.3-28 74-12.3 19.6-35.4 40.6-51.2 43.4-82.2 14.9-176.7-72.5-176.7-102.4ZM219.4 134.6c-15.3 0-25-7-27.6-18.5-2.8-13.1 4.9-27.4 17.2-34 13-7 27.5-5.5 40-3.2 14.5 2.7 29.7 1.9 43.7 7a16 16 0 0 0 12.3-.2 39.3 39.3 0 0 1 17.6-2.7 296 296 0 0 0 42.8-.3c13.4-.9 22.2 7.5 26.1 22.6 2.5 9.3-3.8 23-13.3 28a33.6 33.6 0 0 1-34-.5c-6.8-3.7-12.9-6.4-21.4-2.9a20 20 0 0 1-19.6-2c-4.3-3.5-8.2-3.9-12.8-1.3-1.4.8-3.7 1.7-4.9 1-14.6-7-29.4-2.2-44.3-1.4-8.4.4-13 8-21.8 8.4Z" fill="#000"/></g><g transform="translate(901 668)"><path d="M65.7 43.5c-4.3 23.6-7.3 45.8-.3 68.8A79.4 79.4 0 0 0 98 157.1c22.3 14.8 22.7 43 .4 57.5-24.6 16.2-50.8 14-77 7.5-11.8-3-17.9-14.2-21-25.4-2.7-9.6 6.5-25.2 16.6-31 3.1 3.8 2.4 7 .2 11.3-6.7 12.3 0 31.4 13.5 32.6 19.8 1.7 40.7 5.8 59.1-8 12.5-9.4 14-21.5 1.8-31.4-7.3-5.9-14.4-11.7-20.6-18.8-28-31.7-29.9-68.2-20-107 3.5-14.3 9.2-27 19-38C73 3 76-.9 80.5 2c5.9 3.9 1.2 8.4-1 12-5.6 9-10.6 18.3-13.8 29.5Z" fill="#000"/></g><g transform="translate(610 680)"><path d="M215.1 76.6c5-12 9-29.4 24.1-22.5 20.7 9.4 13.9 30.7 9.7 47.4-1.6 6.3-14.5 15.9-18.3 14.3-16.3-6.8-19.2-21.7-15.5-39.2ZM442 113.4c-8.6 7.5-17 7.6-22.2-1.5-9-16-8.6-32.8 3.3-47.2 2.5-3 13.8-3.6 16.3-1 14 15 14.6 31.8 2.6 49.7Z" fill="#000"/></g><g transform="translate(610 680)"/><g transform="translate(774 657)"><path d="M30.3 32.1C58 10 89.8 13.1 121 14.1c5.7 0 12.2 1.3 14.3 8.3 2.1 7.7-4.6 9.9-8.8 13.8a44.7 44.7 0 0 1-52.2 8.6 37.9 37.9 0 0 0-31.9 1.6c-2 1-3.8 1.9-5.8 2.6-6.3 2.5-14.3 6-18.6-.4-4.4-6.7 5.6-9 8.3-13.7.6-1 2-1.6 3.9-2.8ZM294.4 23.8c7.7 4.3 14.5 10 20 17 2.5 3 5 6.3 3 10.2-2.4 4.3-6.7 2.7-10.4 2.2-12.5-1.5-23.7-9.2-37-7.2-5 .8-9.9.7-15 2.5-13 4.7-31-6.4-33-19.8-1-5.4 1-8.5 6.8-10 22.2-5.7 44-9 65.6 5.1Z" fill="#000"/></g><g transform="translate(0 559)"><path d="m1724 1191.5-235.9 2.6s-64.3-75.3-31.2-274.1c4.8-28.8-15.4-210.2-16-224-1.9-36.3-15-106-32.4-133.5-78-124-65.6-142.6-69.3-170.7-3.9-29.7-10.5-81.2-15.3-101-2.2-9.2-18.2-74.1-.3-76 85.2-9.2 56.6 151.8 89.4 138.7 50.2-20 64-83.6 64-83.6s75.1-171.2 109.4-171.2c14 0-7.3 88.5-7.3 88.5s77.8-91.2 94.5-90.2c16.7 1-12.2 70.5-12.2 70.5s36.5-28.2 49.8-18c17.6 13.6-76 151.2-62.2 152 10.5.5 30.8-34 44-39.8 22-10 29.9-11.8 30.7 8.3 1 21.3-47.7 85.6-70.3 121.8-11.7 18.7-80.9 127.4-96 157.3-19.2 37.7 18.5 101 33.8 131.5 15.2 30.5 74.1 207.2 94.9 239.3 20.7 32.2 40.8 83.9 47.7 138.7 7.5 60.7-9.7 132.9-9.7 132.9Z" fill="#fff"/><path fill-rule="evenodd" clip-rule="evenodd" d="M1429.3 663a867 867 0 0 0 3 22l-3-27.6c-3.5-31.3-7-62.1 8.3 70.8 1.2 10.1 2 20.3 3 30.5 3.3 40.3 4.2 80.7 5 121.1.2 4.6 1.2 9.3 2.2 13.9a47.1 47.1 0 0 1 1.7 18.7c-2 10.7-3.1 21.5-4.2 32.3-1.5 15.8-3 31.6-7.8 47-2.2 7-2.4 14.1-2.4 21.4.1 41.7 4 82.8 17.2 122.8 7 21.2 15.6 41 30.9 58.2h11.7c-3.2-10.7-8.5-20.3-13.7-30-3.7-6.6-7.3-13.2-10.3-20.2-8.1-19.4-13.4-40-15.6-61v-.7c-2.2-19.5-4.4-39.2-3.6-59 .6-12.4 1.8-24.3 10-35.4 2.9 9.4 5.6 18.7 8.3 28 18.1 62.7 36.1 125 79.4 177.5 5.6.8 11.3.8 16.9 0a321.4 321.4 0 0 1-64.3-119.8l-4.7-15.1c-11-36-22.2-72.3-26.7-110-1.2-9.8-2.9-19.5-4.6-29.2-2.4-14.2-5-28.4-5.7-42.7l-1.8-32.4c-3.2-58.3-6.4-116.7-13.9-174.8-5.7-45-18.6-88.8-38.2-129.7-8.4-17.4-18.1-34.2-27.8-51-7-12.2-14-24.4-20.6-36.8-1.4-2.6-3-5.1-4.5-7.7-5-7.8-10-15.8-8.9-26 4-41.1-4.1-80.8-12.3-120.5l-3.7-18.1c-3.2-16.2-6-32.7-4.8-49.4.7-10.2 6.4-13.7 14.2-8.3a114.8 114.8 0 0 1 42.4 59.8c6.4 19.3 8.4 40.7 8.8 61.7.4 15.7 11.5 22.4 26.5 18 17.9-5.5 28.7-19.2 39.5-32.8l.8-1c10-12.8 16.2-27.7 22.3-42.6 2.4-5.8 4.7-11.6 7.4-17.3a1384.4 1384.4 0 0 1 65.6-126.7c8-13.6 16.3-27.9 34-34.2l-3 17.7c-7.2 42.3-14.1 83.8-30.2 123.3l6.3 3c28.1-55.9 60.3-108.7 110.5-148.6a26 26 0 0 1 1.5 18.6c-5 22.7-16.3 42.5-27.6 62.3-4 7-8 14-11.8 21.2-5.1 9.7-11 19.1-16.8 28.5a707 707 0 0 0-11.2 18.4l-.3.6c-2.6 4.6-5.7 9.8-1.5 15.1 4.2-.4 5.7-2.9 7-5.2l.4-.5a469 469 0 0 1 30.7-46.9l7.8-10.3c12.7-16.8 25.4-33.7 42.6-46.6l2-1.5c4.6-3.6 9.5-7.4 14.6-2.8 6 5.4 4 13.5.3 20-5.1 9.3-10.4 18.5-15.7 27.7-7 12-14 24.2-20.6 36.5l-7.8 14.3a2535.2 2535.2 0 0 0-33.3 62.9c-2.2 4.2-3.7 8.7 2.9 13.4a186 186 0 0 0 32-30.2c13.4-14.8 26.9-29.8 46.1-38.3 6.1 8.5 7.7 16 .8 26.2a1436.3 1436.3 0 0 0-30.4 47c-6.6 10.7-13.3 21.3-20.2 31.8-6.2 9.5-11.6 19.5-17 29.4-7.4 13.5-14.8 27-24 39.3a682.4 682.4 0 0 0-59.4 97.2c-15.5 30.3-12.6 60.4-2.5 90 12 35.4 28 69.5 44.5 103.3a598.8 598.8 0 0 1 30.2 81.4 3786.8 3786.8 0 0 0 5 16c8.2 25.4 16.4 51 22.7 77.2l4.6 18.7a557.3 557.3 0 0 1 13.9 67c4.1 33.3 3.7 66.8 0 100.4l-1.5 13c-3.6 34-7.1 67.7-27.2 96.9h34.6c46.8-83.9 30.3-168.9 3.2-254a103.9 103.9 0 0 1 22.2 45.1 625.3 625.3 0 0 1 13.8 67.3 342 342 0 0 1-6.1 137c-.5 1-1 2.1-1 3.7 3.9.9 8 .9 11.8 0l.7-1.3a70.5 70.5 0 0 0 7.8-21c3.8-25.2 6.5-50.6 6.5-76 0-38.4-9.2-75.7-18.5-112.8-.6-2.2-1-4.6-1.5-6.9-1.1-5.5-2.2-11-5-16.2-11.3-22-22.4-44.3-33.4-66.5l-20.5-41.2a572.8 572.8 0 0 1-29.8-76.5 705.2 705.2 0 0 0-23.6-63.5 873.1 873.1 0 0 1-15.8-38.8c-6.8-17.3-13.6-34.6-21.7-51.2-12.6-25.6-15.6-50.6-6-77 8.3-23.3 22-43.5 35.7-63.7 4.6-6.8 9.2-13.5 13.6-20.4 5-7.7 10.2-15.3 15.5-23a430.3 430.3 0 0 0 24.8-38.6c11.7-21.3 24.8-41.8 37.8-62.2a1737.1 1737.1 0 0 0 21-33.3c7-11.5 14.2-23.2 12.7-37.6-1.9-18-12.2-23.2-28.5-15.5-6.9 3.3-12.8 7.8-18.8 12.4-4.5 3.4-9 6.8-13.8 9.7a45.6 45.6 0 0 0 8.9-16c1.4-3.4 2.7-7 4.6-10.1a1100 1100 0 0 0 38-70.4 26.6 26.6 0 0 0-4.7-31c-7.2-7.2-16.9-6.1-25.7-.3a38.7 38.7 0 0 1-8 3.6l-3.7 1.5a56.7 56.7 0 0 0 8.7-38c-.2-6.8-.4-13.6-7.5-17a20.7 20.7 0 0 0-22.7 2.8 318.2 318.2 0 0 0-44.7 44.3l-1.7 1.8c-3 3.5-5.9 7.2-8.7 11-4.9 6.4-9.8 13-16.2 18.3 6.6-19 9.4-38.5 12.3-57.9a101.8 101.8 0 0 1 .8-5c1-5.7 2.1-11-4.1-15-6.8-4.4-13.2-1.4-19.2 2.2-17.1 10.5-28.3 26.5-38.2 43.3a939.6 939.6 0 0 0-41 80.1c-3.5 7.6-7.3 15-11 22.5a486 486 0 0 0-22.5 50.1 108 108 0 0 1-41.1 52.6c-10 6.8-17.8 3.3-19-7.6l-1-9.3c-2.5-23.6-4.9-47-15.7-69.7-8.8-18.7-19-34.5-35.7-46-14.7-10.3-30.5-7.4-35 6.2a55.8 55.8 0 0 0-3 20c1 22.1 5.8 43.5 10.5 65a751 751 0 0 1 7 33.8c.7 4.3 1.6 8.7 2.6 13 2.9 13.8 5.8 27.5 3.3 42.3a100.1 100.1 0 0 0 0 35.5c4 20.8 14.4 38.7 24.7 56.5 6.2 10.7 12.4 21.4 17.2 32.8a522.4 522.4 0 0 0 22.5 44.5l10.4 19.4c13.5 26 17 53.5 20.5 81.1Zm269.3 396.4.1 2.4c2.2 30.8-4.6 58.3-12 85.7 5.1-20.3 6.2-41.1 7.3-62 .5-10.8 1-21.5 2.2-32.3 2.5 1.6 2.4 4 2.4 6.2Z" fill="#000"/><path d="M1511.1 397.6c-2.9 24-8.6 45.7-22.8 65.2-6-5.5-5.1-9.9-3.5-13.7 15.6-36.6 14.3-75.6 17-114l.2-6.4c0-4.1.4-8 6-7.9 5.4.1 6 4.6 6 8.2 0 14.4.5 29-1.2 43.3-.9 8-1.4 16-1.7 25.3ZM1530.8 532.9c4.8-2.8 9.2-4.3 11.6.8 1.8 3.5-1.7 5.7-4 8.3a91.9 91.9 0 0 1-28.1 23 26.3 26.3 0 0 1-24.3-.3c-3-1.4-4.5-3.8-4-7.2.5-4 3.6-4.1 6.6-4 17.3.5 30-8.5 42.2-20.6ZM1557.1 391c5.7-2 10.6-3 14.8 1-6.3 10.5-29.9 22.2-40.7 20.2 3.3-13.3 16.3-14.6 26-21.3Z" fill="#000"/><path d="m14 1186.3 235.4 16.5s68.6-71.2 47.4-271.7c-3-29 27.8-209 29.3-222.7 4-36 21.3-104.9 40.1-131.2 85.3-119.3 74-138.5 79.3-166.4 5.7-29.4 15.4-80.4 21.3-100 2.7-9 22.5-72.8 4.8-75.8-84.4-14.2-65.4 148.2-97.5 133.2-49-23-59-87.3-59-87.3s-64.7-175.3-99-177.3c-14-.9 2.1 88.8 2.1 88.8s-72.3-95.6-89-95.7c-16.7 0 8 71.1 8 71.1s-34.8-30.2-48.7-20.8c-18.4 12.5 67 155.3 53.2 155.3-10.5 0-28.8-35.7-41.5-42.3-21.5-11.2-29.2-13.5-31.3 6.5-2.1 21.2 42.5 88.2 63 125.7 10.6 19.4 73.2 132 86.6 162.7 16.8 38.8-24.5 99.8-41.6 129.3-17 29.6-86.2 202.4-108.8 233.3-22.7 30.9-45.8 81.3-55.9 135.6-11.1 60.1 1.8 133.2 1.8 133.2Z" fill="#fff"/><path fill-rule="evenodd" clip-rule="evenodd" d="M339.5 676.2c-1.3 7.3-2.7 14.6-4.3 21.8l4.8-28.2a6441 6441 0 0 0-12.6 71c-1.7 10-3.2 20.1-4.7 30.2-5.7 40-9 80.4-12.3 120.7a72 72 0 0 1-3 13.7c-1.8 6.3-3.5 12.6-2.7 18.6 1.4 10.8 1.8 21.6 2.2 32.5.6 15.8 1.2 31.7 5 47.3a70 70 0 0 1 1.2 21.5c-2.6 41.7-9 82.4-24.5 121.6-8.2 20.8-18 40-34.2 56.2l-11.7-.6c3.8-10.5 9.6-19.8 15.5-29 4-6.5 8-12.9 11.4-19.7 9.3-19 15.8-39.1 19.2-60l.1-.8c3.3-19.3 6.7-38.7 7-58.5.2-12.4-.3-24.4-8-36a3134 3134 0 0 0-9.8 27.5c-21.8 61.5-43.4 122.5-89.7 172.5a60 60 0 0 1-17-1c33-33.7 55.6-73.2 71.3-115.8l5.6-14.8c13.2-35.3 26.5-70.8 33.2-108.3 1.7-9.7 4-19.2 6.3-28.8 3.3-14 6.6-28 8.2-42.3l3.8-32.4c6.6-58 13.2-116 24.1-173.5a422.7 422.7 0 0 1 45.9-127.2c9.4-17 20-33.1 30.7-49.3 7.8-11.8 15.5-23.5 22.7-35.5l5-7.4c5.4-7.6 10.8-15.2 10.4-25.5-1.6-41.2 9-80.4 19.4-119.6l4.8-17.8c4.1-16 8-32.2 7.7-49-.1-10.2-5.5-14-13.7-9.2a114.9 114.9 0 0 0-45.8 57.3 209.2 209.2 0 0 0-12.5 61c-1.3 15.7-12.8 21.7-27.4 16.3-17.6-6.4-27.6-20.8-37.5-35l-.8-1c-9.3-13.4-14.5-28.6-19.7-43.8-2-6-4-12-6.4-17.8-17-43.3-35.4-86-56.6-127.5l-1.5-2.8c-7-14-14.6-28.8-31.8-36.2l2 18c4.6 42.6 9 84.4 22.8 124.8l-6.5 2.7c-24.8-57.6-53.8-112.2-101.5-155a26 26 0 0 0-2.6 18.5c3.7 23 13.8 43.4 23.9 63.8 3.6 7.2 7.2 14.5 10.5 21.8 4.5 10 9.8 19.8 15 29.5 3.5 6.4 6.9 12.7 10.1 19l.3.6c2.4 4.8 5 10.1.7 15.3-4.3-.7-5.6-3.3-6.8-5.7l-.3-.5a467 467 0 0 0-35-59.4c-11.7-17.5-23.4-35.1-39.8-49l-1.9-1.6c-4.4-4-9-8-14.4-3.7-6.3 5-4.8 13.3-1.6 20 4.6 9.6 9.4 19 14.1 28.5 6.2 12.5 12.5 25 18.4 37.7l7 15c10 21.4 20 42.8 29.5 64.4 1.9 4.4 3.2 9-3.7 13.3-11.6-9-20.8-20.5-30-32-12.6-15.7-25.3-31.4-44-41-6.6 8.1-8.6 15.5-2.3 26 9.6 16 18.6 32.5 27.6 48.8 6 11 12 22 18.2 33 5.6 9.8 10.5 20 15.3 30.3 6.6 13.9 13.1 27.8 21.6 40.6A683 683 0 0 1 216.9 536c13.8 31.2 9 61-2.7 90a915.5 915.5 0 0 1-50.6 100.5 597.7 597.7 0 0 0-35 79.5l-4.3 11.4-1.6 4.1c-9.7 25-19.4 50.1-27.2 75.8l-5.7 18.4c-6.9 21.8-13.7 43.6-17.9 66a426 426 0 0 0-5.8 100.3l.6 13.1c1.6 34.1 3.1 68 21.5 98.3l-34.6-2c-41.8-86.5-20.3-170.4 11.8-253.8a104 104 0 0 0-24.8 43.8c-7 21.9-13.3 43.9-17.8 66.4a342 342 0 0 0-2 137c.4 1 .9 2.2.8 3.8-4 .6-8 .4-11.8-.7l-.6-1.3c-3.1-7.4-6-14-6.6-21.4-2.2-25.4-3.5-51-2-76.3 2.4-38.4 13.7-75 25.2-111.5.8-2.2 1.4-4.5 2-6.8 1.4-5.5 2.8-11 5.8-16 12.7-21.3 25-42.8 37.3-64.4 7.6-13.3 15.2-26.6 23-39.8 13.7-23.7 24-49.1 34.2-74.6a703 703 0 0 1 27.3-62c6.4-12.4 12.3-25.1 18.1-37.8a656.8 656.8 0 0 1 24.7-49.9c14.1-24.8 18.5-49.6 10.6-76.5-7-23.7-19.5-44.7-32-65.7-4.1-7-8.3-14-12.3-21.1-4.5-8-9.3-16-14-23.8-8-13.1-16-26.2-22.6-40.1-10.4-22-22.2-43.2-34-64.4l-18.3-33-.7-1.5C68.5 288 62 276 64.4 261.7c3-18 13.5-22.4 29.4-13.7 6.6 3.6 12.3 8.5 18 13.4 4.3 3.7 8.5 7.3 13.2 10.5-4.1-4.9-6-10.7-8-16.4a71.9 71.9 0 0 0-4-10.5c-12-23.7-23.3-48-33.7-72.5a26.6 26.6 0 0 1 6.5-30.7c7.6-6.7 17.3-5 25.7 1.3 2.3 1.7 5 2.9 7.8 4l3.6 1.7a56.7 56.7 0 0 1-6.6-36.5l.2-1.9c.6-6.8 1.1-13.6 8.4-16.6 8-3.2 15.6-1.8 22.5 4.2 16.2 13.8 29 30.3 42 46.9l1.6 2c3 3.6 5.5 7.5 8 11.4 4.6 6.7 9.1 13.4 15.2 19.3-5.5-19.5-7.2-39-8.9-58.6l-.1-1.7-.4-3.3c-.7-5.8-1.4-11.2 5-14.8 7-4 13.3-.6 19 3.4 16.5 11.5 26.7 28 35.6 45.5a940 940 0 0 1 36.2 82.4c3 7.7 6.3 15.4 9.6 23a488.4 488.4 0 0 1 19.6 51.4 108 108 0 0 0 37.9 55c9.5 7.3 17.6 4.2 19.4-6.6l1.5-9.1c3.9-23.5 7.7-46.7 19.7-68.7 10-18.2 21.1-33.3 38.4-43.9 15.4-9.3 31-5.5 34.6 8.3a56 56 0 0 1 2 20.2c-2.5 22-8.5 43-14.5 64.2-3.1 11-6.3 22.1-9 33.3l-3.3 12.9a110.6 110.6 0 0 0-5.9 42c1.5 11.8.8 23.9-2 35.5-5.3 20.5-16.7 37.7-28 55-6.8 10.2-13.7 20.6-19.2 31.6-7.3 14.8-16.2 29-25 43.1-3.9 6.3-7.8 12.5-11.5 18.8-15.1 25.1-20.2 52.4-25.4 79.7ZM47.3 1056c0 .9-.1 1.7-.3 2.4-4 30.7 1.2 58.5 7 86.4-4-20.7-3.8-41.5-3.6-62.4 0-10.8.1-21.6-.3-32.4-2.6 1.5-2.7 3.8-2.8 6Z" fill="#000"/><path d="M273.6 406.4c1.5 24.2 6 46.1 19 66.5 6.3-5.2 5.6-9.6 4.2-13.5-13.4-37.4-9.8-76.3-10.2-114.9 0-2 0-4.2.2-6.4.2-4 0-7.9-5.5-8.1-5.4-.2-6.3 4.2-6.5 7.8-1 14.4-2.2 29-1.4 43.3.4 8 .5 16.1.2 25.3ZM246 540.3c-4.7-3-9-4.8-11.7.1-2 3.4 1.3 5.8 3.5 8.5a92 92 0 0 0 26.7 24.6c8.1 4.7 16 4.5 24.3 1.2 3-1.2 4.7-3.5 4.5-6.9-.4-4-3.4-4.3-6.5-4.4-17.3-.6-29.4-10.2-40.9-23.1ZM228 397c-5.5-2.2-10.3-3.5-14.8.3 5.8 10.8 28.6 23.9 39.5 22.5-2.5-13.5-15.4-15.6-24.6-22.8Z" fill="#000"/></g></g></svg>